<svg width="159" height="56" viewBox="0 0 159 56" fill="#E63915" xmlns="http://www.w3.org/2000/svg">
<path d="M131.391 39.4727C131.391 39.5638 131.391 39.6776 131.391 39.7687C131.299 39.8825 131.16 39.9963 131.137 40.1101C130.629 42.7508 130.12 45.3687 129.681 48.0093C129.45 49.5117 129.265 50.9914 128.873 52.4711C128.757 52.9036 128.665 53.3589 128.85 53.8142C128.827 53.9735 128.827 54.1101 128.803 54.2695C128.48 55.089 128.087 55.6581 127.001 55.6126C124.806 55.5215 122.612 55.5898 120.417 55.5898C119.469 55.5898 119.007 55.1573 118.961 54.2239C118.915 53.1996 118.776 52.1752 118.753 51.1735C118.684 44.8451 118.337 38.5394 117.968 32.2109C117.945 31.8239 118.153 31.3687 117.714 31.05C117.76 29.8435 117.783 28.637 117.621 27.4305C117.875 26.4061 117.76 25.4272 117.228 24.4939C116.743 26.2012 116.397 27.9085 116.05 29.6158C116.027 29.7752 116.119 29.98 116.143 30.1622C116.119 30.2987 116.096 30.4581 116.073 30.5947C116.004 30.7085 115.888 30.8223 115.865 30.9589C115.38 33.6223 114.895 36.3085 114.433 38.9719C114.317 39.6548 113.994 40.3605 114.34 41.089C114.317 41.3849 114.271 41.6809 114.248 41.9768C113.832 43.0012 113.324 44.0028 113.601 45.1865C113.578 45.3231 113.578 45.4825 113.555 45.6191C113.301 46.7117 113.024 47.8044 112.769 48.9199C112.654 49.4207 112.446 49.9215 112.7 50.4451C112.677 50.741 112.654 51.037 112.608 51.3329C112.169 52.289 112.03 53.3361 111.845 54.3378C111.684 55.2028 111.337 55.6581 110.344 55.6126C108.98 55.5443 107.594 55.5443 106.208 55.6126C105.33 55.6353 104.891 55.3622 105.007 54.4516C105.03 54.2239 105.076 53.9963 104.868 53.8142C104.868 53.6321 104.891 53.4727 104.891 53.2906C105.214 53.1313 105.168 52.8126 105.261 52.5166C105.908 50.2402 105.838 47.8272 106.554 45.5735C106.693 45.141 106.762 44.6857 106.554 44.2532C106.578 44.1166 106.578 43.9573 106.601 43.8207C106.878 42.6597 107.178 41.476 107.432 40.315C107.548 39.8142 107.733 39.3134 107.432 38.8126C107.432 38.6304 107.456 38.4711 107.456 38.289C107.502 38.2435 107.594 38.1979 107.617 38.1524C108.403 35.3752 108.634 32.4841 109.188 29.6841C109.211 29.5703 109.119 29.4109 109.073 29.2744C109.073 29.1833 109.073 29.0695 109.073 28.9784C109.627 27.8174 109.627 26.5426 109.951 25.3361C110.066 24.8581 110.344 24.3345 109.997 23.8337C109.997 23.5833 110.02 23.3329 110.02 23.0825C110.551 22.0353 110.898 20.9426 110.759 19.7361C110.782 19.5085 110.806 19.3036 110.829 19.076C110.898 18.9849 111.014 18.9166 111.037 18.8256C111.891 13.8857 112.746 8.9459 113.578 3.9833C113.717 3.16379 113.786 2.34427 113.994 1.52476C114.156 0.910127 114.479 0.636956 115.126 0.636956C117.575 0.659721 120.047 0.659721 122.496 0.636956C123.143 0.636956 123.466 0.887363 123.49 1.57029C123.536 2.68574 123.651 3.82395 123.744 4.9394C123.674 6.76053 123.674 8.58167 123.882 10.38C123.628 10.5849 123.697 10.8581 123.697 11.1085C123.859 15.0467 124.021 18.9622 124.16 22.9004C124.16 23.1052 124.206 23.2646 124.414 23.3557C124.46 25.0174 124.529 26.702 124.575 28.3638C124.298 28.9784 124.552 29.5475 124.783 30.1166C124.783 30.1394 124.968 30.1622 124.991 30.1394C125.292 29.6158 125.453 29.0467 125.338 28.4548C125.338 28.4093 125.315 28.3865 125.292 28.3638C125.315 28.0678 125.361 27.7719 125.384 27.476C125.731 26.6792 126.123 25.8825 125.915 24.9719C125.915 24.8809 125.915 24.7898 125.915 24.6987L125.939 24.6305C126.17 24.2435 126.123 23.8337 126.123 23.4012C126.424 21.876 127.048 20.4191 126.955 18.8256C126.978 18.5296 127.001 18.2337 127.024 17.9378C127.625 16.276 127.787 14.5231 128.064 12.7931C128.434 10.3118 128.965 7.83045 129.45 5.37192C129.566 4.78005 129.751 4.21094 129.497 3.61907C129.497 3.52801 129.497 3.41419 129.497 3.32314C130.051 2.86785 129.774 2.18492 129.959 1.61582C130.167 1.00118 130.467 0.568664 131.137 0.568664C132.985 0.545899 134.833 0.545899 136.682 0.591428C137.606 0.614192 137.86 1.04671 137.675 2.00281C137.167 4.5524 136.774 7.14752 136.335 9.71988C135.942 12.1101 135.55 14.5004 135.111 16.8906C134.718 19.167 134.256 21.4207 133.863 23.6971C133.817 23.9931 133.886 24.289 133.909 24.5849C133.886 24.8126 133.863 25.0402 133.84 25.2678C133.424 25.928 133.424 26.6792 133.286 27.4077C132.893 29.5703 132.592 31.7557 132.269 33.9183C132.246 34.0776 132.246 34.2142 132.223 34.3735C131.969 35.489 131.714 36.6272 131.46 37.7426C131.322 38.2207 131.137 38.8353 131.391 39.4727Z" fill="E63915"/>
<path d="M65.1988 7.85365C65.1988 8.03577 65.1757 8.21788 65.1757 8.39999C64.6674 9.53821 64.2515 10.6992 64.4364 11.974C64.2284 12.5658 64.2746 13.1577 64.2746 13.7496C63.9512 13.9089 63.9281 14.2276 63.8819 14.5236C63.3505 17.574 62.9346 20.6244 62.2877 23.652C61.8025 25.974 61.6639 28.3642 60.9939 30.6634C60.8322 31.2325 60.7398 31.8472 60.9708 32.439C60.9708 32.5756 60.9477 32.735 60.9477 32.8715C60.6705 32.9626 60.7167 33.2358 60.6474 33.4406C59.9542 35.6943 59.7694 38.0618 59.3535 40.361C58.6373 44.3902 57.9211 48.3967 57.2973 52.4488C57.1818 53.1545 57.1356 53.8829 56.8583 54.5659C56.6504 55.0894 56.327 55.4764 55.68 55.4764C53.3235 55.4764 50.99 55.4764 48.6334 55.4764C47.8941 55.4764 47.5013 55.0894 47.5013 54.3382C47.4551 48.3967 46.9699 42.4553 46.6465 36.5138C46.4616 32.9626 46.4385 29.3886 46.3461 25.8374C46.323 25.3593 46.2999 24.8813 45.9765 24.3805C45.7916 24.7447 45.653 25.0406 45.5144 25.3366C44.4516 27.4537 44.6134 29.8439 44.1282 32.0976C43.2733 36.1268 42.7882 40.2244 42.095 44.2992C41.5174 47.6455 40.7781 50.9691 40.3854 54.361C40.2929 55.2033 39.7154 55.4537 39.0222 55.4764C37.5205 55.522 36.0188 55.4992 34.517 55.4992C33.9163 55.4992 33.5698 55.2033 33.6391 54.5886C33.8008 53.3594 33.847 52.0846 34.1705 50.878C35.1408 47.3268 35.5567 43.6846 36.2267 40.0878C36.8505 36.7187 37.405 33.3496 37.9364 29.9805C38.2829 27.8634 38.7681 25.7691 39.0222 23.6293C39.0916 22.9463 38.9991 22.2179 39.2071 21.6032C40.0619 19.2813 39.9464 16.7772 40.5933 14.387C40.9861 12.9528 40.9399 11.4049 41.1709 9.90243C41.5637 7.33008 42.2337 4.80325 42.4185 2.18536C42.4647 1.4569 42.6033 0.705685 43.643 0.728449C46.0227 0.728449 48.4255 0.728449 50.8052 0.728449C51.4059 0.728449 51.7062 1.02438 51.7524 1.63902C51.891 3.82438 52.099 6.00975 52.1452 8.21788C52.2838 13.9772 52.3531 19.7366 52.4686 25.5187C52.4917 26.9528 52.6072 28.387 52.6766 29.8211C52.6997 30.0943 52.6766 30.3902 52.9769 30.5041C53.2773 30.6179 53.4621 30.3219 53.6469 30.1626C53.8549 29.9577 54.1552 29.7528 54.1552 29.4341C54.0628 27.4309 54.8483 25.5642 55.01 23.652C55.218 21.1024 55.7263 18.6211 56.119 16.1398C56.5118 13.6813 56.7428 11.1772 57.4128 8.76422C57.5283 8.35447 57.6901 7.87642 57.3666 7.46666C57.3666 7.35284 57.3666 7.26178 57.3666 7.14796C57.459 7.03414 57.6439 6.94308 57.6439 6.82926C57.7825 5.213 58.4756 3.6878 58.4756 2.04877C58.4756 1.25203 58.7991 0.660156 59.7694 0.660156C61.5253 0.660156 63.3043 0.68292 65.0602 0.660156C65.684 0.660156 65.8688 0.933327 65.8457 1.47967C65.7764 2.79999 65.8226 4.09755 65.4529 5.41788C65.1757 6.12357 64.806 6.96585 65.1988 7.85365Z" fill="E63915"/>
<path d="M63.2812 32.2338C63.3043 32.0744 63.3043 31.9151 63.3274 31.7557C63.6046 31.5508 63.5815 31.3004 63.4198 31.05C63.466 30.6858 63.5122 30.2988 63.5353 29.9346C63.9974 29.0695 64.2515 28.1817 64.1591 27.2029C64.1822 26.9069 64.2053 26.611 64.2284 26.2923C64.5519 25.9281 64.5057 25.5411 64.367 25.1313C64.3901 24.9947 64.4132 24.8354 64.4594 24.6988C64.9908 23.6972 65.2219 22.6272 65.0601 21.489C65.0832 21.1931 65.1295 20.8972 65.1526 20.6012C65.4991 19.5768 65.9381 18.5524 65.7995 17.4142C65.8226 17.2549 65.8457 17.0955 65.8457 16.959C66.0998 16.7541 66.0767 16.5037 65.9381 16.2533C65.9843 15.798 66.0305 15.3655 66.0767 14.9102C66.5388 13.9768 66.8622 13.0207 66.7005 11.9508C66.7236 11.7915 66.7467 11.6549 66.7467 11.4955C67.8326 8.49066 67.9943 5.30367 68.5257 2.18497C68.7567 0.887411 68.8492 0.591475 70.2354 0.568711C71.8526 0.545947 73.4699 0.568711 75.0872 0.568711C77.6748 0.568711 77.6748 0.568711 77.721 3.05001C77.721 3.23213 77.721 3.437 77.7441 3.61912C77.9982 8.33131 78.3448 13.0663 78.5065 17.7785C78.6451 21.8305 78.5989 25.9053 78.622 29.9573C78.622 30.663 78.6914 31.3459 79.1303 32.0744C79.8697 31.0728 80.2393 30.0711 80.3779 28.9785C80.5166 27.8175 80.4934 26.611 80.8169 25.4955C81.4869 23.1281 81.8104 20.6923 82.1338 18.2793C82.4342 15.889 83.0811 13.5443 83.3583 11.1541C83.728 8.12643 84.4904 5.16708 84.7908 2.11668C84.8832 1.13782 85.299 0.659768 86.3156 0.682532C87.8173 0.705297 89.3191 0.728061 90.8208 0.659768C91.8143 0.61424 92.2302 1.00123 91.9991 1.9118C91.5602 3.73294 91.537 5.6679 91.0288 7.44351C90.3588 9.71993 90.2432 12.0646 89.8274 14.3411C89.3653 16.7996 88.8801 19.2809 88.5567 21.785C88.187 24.6077 87.517 27.4077 87.078 30.2305C86.7546 32.4386 86.4311 34.6695 85.9459 36.7866C85.299 39.5183 85.3221 42.3183 84.7445 45.05C84.0976 48.1232 83.7511 51.2419 83.1273 54.3151C82.9656 55.0663 82.619 55.4305 81.8104 55.4305C79.5 55.4077 77.1896 55.4077 74.8792 55.4305C74.0937 55.4305 73.8165 55.1118 73.7703 54.3378C73.493 48.2142 73.1696 42.0907 72.9154 35.9443C72.7537 32.1882 72.7537 28.4094 72.4071 24.6305C71.5061 25.2224 71.1826 26.0419 71.0902 26.9752C70.7206 31.1183 69.7502 35.1703 69.1033 39.2907C68.3178 44.2077 67.3936 49.1248 66.6543 54.0419C66.5388 54.8842 66.146 55.4988 65.1988 55.5216C63.6508 55.5671 62.126 55.5671 60.578 55.5216C59.8156 55.4988 59.4921 55.1346 59.7001 54.3151C59.9311 53.4045 60.0697 52.4484 60.1621 51.5151C60.3701 49.5346 61.2018 47.6224 60.9015 45.5736C60.9246 45.3459 60.9477 45.1183 60.9939 44.8907C61.4329 43.9573 61.7794 43.0012 61.5946 41.9313C61.6177 41.6354 61.6408 41.3394 61.6639 41.0207C62.0104 39.6549 62.5418 38.3346 62.4494 36.9004C62.4956 36.3768 62.5418 35.8533 62.588 35.3297C62.9808 34.3736 63.3967 33.3492 63.2812 32.2338Z" fill="E63915"/>
<path d="M97.4516 36.7638C97.4285 36.9914 97.4054 37.1963 97.3823 37.424C97.2899 37.5378 97.1744 37.6516 97.1282 37.7654C96.1116 41.4305 95.8806 45.2548 94.9795 48.9427C94.8871 49.3752 95.2799 49.6028 95.6957 49.6711C96.0654 49.7166 96.4582 49.7394 96.8509 49.7394C98.653 49.7394 100.478 49.7166 102.28 49.7622C102.881 49.7622 103.805 49.9215 103.528 50.6727C103.02 51.9248 103.389 53.2223 102.95 54.4516C102.719 55.089 102.442 55.4532 101.795 55.4532C96.874 55.476 91.9298 55.476 87.0087 55.4532C86.1308 55.4532 85.8536 55.0662 86.1539 54.2012C86.4311 53.3362 86.5005 52.4256 86.2694 51.515C86.2925 51.1508 86.3156 50.7638 86.3387 50.3996C87.0318 50.2174 86.9625 49.6028 87.0318 49.1248C87.5863 45.8012 88.0946 42.4776 88.6722 39.154C88.8339 38.2662 88.9264 37.3784 88.8108 36.4906C88.8339 36.354 88.857 36.1947 88.8801 36.0581C89.1343 36.0126 89.1112 35.8077 89.1574 35.6256C90.174 31.6418 90.5898 27.5215 91.3753 23.4922C91.7219 21.7849 92.1378 20.0776 92.2533 18.3703C92.4381 15.7979 93.085 13.2939 93.4547 10.767C93.8706 7.78492 94.5868 4.82557 94.9333 1.8207C95.0257 0.910126 95.3954 0.545898 96.3889 0.545898C100.917 0.591427 105.469 0.568663 109.997 0.568663C110.228 0.568663 110.459 0.568663 110.69 0.591427C111.221 0.682484 111.499 0.887362 111.314 1.502C111.014 2.54915 110.782 3.61907 110.736 4.73452C110.69 5.75891 110.205 6.25972 109.05 6.21419C107.201 6.12313 105.353 6.19143 103.505 6.19143C102.696 6.19143 102.234 6.4646 102.488 7.3524C102.465 7.51175 102.465 7.64834 102.442 7.80769C102.234 7.89874 102.211 8.08086 102.188 8.28574C101.657 11.4044 101.056 14.5004 100.64 17.6418C100.432 19.076 99.7158 20.4418 99.993 21.967C99.9699 22.263 99.9237 22.5589 99.9006 22.8548C99.5541 23.0825 99.6696 23.4695 99.6003 23.7882C99.2537 25.1996 99.4617 25.45 100.963 25.45C102.072 25.45 103.181 25.4272 104.313 25.45C105.538 25.4727 105.653 25.6548 105.399 26.7931C105.191 27.6581 104.799 28.5231 105.076 29.4565C105.053 29.5931 105.053 29.7524 105.03 29.889C104.66 30.276 104.267 30.5036 103.667 30.5719C102.627 30.663 101.633 30.663 100.594 30.5947C99.8775 30.5492 98.9765 30.2532 98.4913 31.1866C98.4451 31.3231 98.422 31.437 98.3758 31.5735C97.9137 33.3036 97.3361 34.9654 97.4516 36.7638Z" fill="E63915"/>
<path d="M20.2391 22.4676C19.4305 22.4676 18.6218 22.4449 17.8132 22.4676C17.097 22.5132 16.7273 22.1489 16.9353 21.5115C17.6515 19.3489 17.3742 17.027 18.0904 14.8644C18.6218 13.2709 18.4139 11.5636 18.7836 9.94732C18.876 9.53756 18.9222 9.1278 19.0377 8.74081C19.4536 7.26114 19.0146 5.87252 18.0442 5.64488C16.5194 5.30341 15.0408 6.44163 14.7635 8.03512C14.3245 10.7441 13.8856 13.4302 13.4697 16.0937C13.0307 18.8709 13.6776 21.5571 15.1794 23.9701C16.7966 26.5652 18.9453 28.8189 20.4008 31.4823C21.7177 33.8725 22.226 36.4904 21.8101 39.2221C21.4867 41.4302 20.9553 43.5701 20.7012 45.801C20.4932 47.5993 20.1929 49.6026 19.107 51.1506C17.8363 52.9489 16.1728 54.3376 13.9549 55.1115C11.6214 55.9311 9.24171 55.8855 6.90823 55.6807C4.82889 55.4985 2.72645 54.8611 1.43264 53.04C0.277456 51.4465 -0.554279 49.6937 0.508493 47.6904C0.554701 47.5994 0.624012 47.4855 0.624012 47.3717C0.554701 45.0042 1.57127 42.7733 1.61747 40.4286C1.66368 38.3798 2.65714 36.4904 2.63404 34.4189C2.63404 33.8042 3.30405 33.6221 3.85854 33.5994C5.52201 33.5766 7.16237 33.5766 8.82584 33.5766C9.61137 33.5766 9.7962 34.0091 9.65758 34.7148C8.98757 37.7652 8.31756 40.8384 8.10963 43.9798C8.04031 45.0042 7.43962 45.892 7.39341 46.9392C7.30099 48.8741 7.60134 49.8985 8.66412 50.24C10.1659 50.718 11.321 50.1717 12.3145 48.4872C12.4531 48.2595 12.5686 48.0091 12.6149 47.7587C12.9383 44.7538 13.7007 41.84 13.8856 38.8124C14.0935 35.3294 12.7073 32.4611 10.5817 29.7977C8.87205 27.6806 7.27789 25.4498 6.19201 22.9685C5.19855 20.7148 5.17545 18.3701 5.61442 15.8888C6.05339 13.453 6.42305 10.9717 6.79271 8.51317C7.30099 5.05301 9.31102 2.64 12.638 1.29691C14.879 0.409105 17.1432 -0.296586 19.5691 0.0676416C21.7177 0.386341 23.9126 0.750569 25.2757 2.77658C26.5002 4.62049 26.5002 6.50992 26.1305 8.67252C25.6916 11.1993 25.0216 13.7034 24.8829 16.3213C24.7905 18.0969 24.0281 19.8042 23.9126 21.6254C23.8664 22.1717 23.4736 22.4676 22.8729 22.4676C21.995 22.4676 21.117 22.4676 20.2391 22.4676Z" fill="E63915"/>
<path d="M138.599 33.3723C139.408 33.3723 140.217 33.4178 141.025 33.3495C142.042 33.2585 142.412 33.7365 142.18 34.6243C141.603 36.9008 141.464 39.2682 140.933 41.5447C140.494 43.4568 140.309 45.4373 139.963 47.3723C139.593 49.3983 140.887 50.6276 142.689 50.1951C143.89 49.8991 144.468 48.852 144.629 47.8503C145.299 43.7983 146.501 39.769 145.762 35.6032C145.392 33.4861 144.075 31.8243 142.897 30.117C141.742 28.4325 140.332 26.8845 139.408 25.0861C138.045 22.4227 137.075 19.6682 137.86 16.504C138.438 14.1821 138.623 11.7235 138.946 9.33327C139.57 4.96254 141.695 2.39018 146.016 0.796688C148.765 -0.204938 151.63 -0.250466 154.495 0.569046C157.568 1.45685 159.462 4.34791 158.908 7.44384C158.33 10.6764 157.868 13.9316 157.267 17.1642C156.99 18.6211 156.528 20.0552 156.389 21.5349C156.343 22.1951 155.973 22.4455 155.327 22.4455C153.64 22.4455 151.953 22.491 150.267 22.5138C149.435 22.5138 148.973 22.2178 149.135 21.2845C149.597 18.8032 149.966 16.2991 150.498 13.8406C150.914 11.8829 150.983 9.85685 151.445 7.89913C151.676 6.94303 151.191 6.07799 150.174 5.73653C149.181 5.41783 148.511 5.96417 147.956 6.73815C147.656 7.14791 147.448 7.58043 147.356 8.08124C146.894 10.9268 146.362 13.7495 145.969 16.5951C145.6 19.2129 146.478 21.5804 147.725 23.8569C149.042 26.2471 150.96 28.2276 152.439 30.5268C154.402 33.5089 154.564 36.7414 154.125 40.0422C153.709 43.2292 153.316 46.439 152.369 49.5121C151.722 51.5837 150.336 53.1772 148.419 54.3154C145.438 56.0682 142.18 56.2276 138.923 55.7723C136.312 55.4081 133.701 54.7024 132.639 51.743C132.177 50.491 132.153 49.2617 132.408 48.0552C133.124 44.5268 133.586 40.9755 134.21 37.4243C134.371 36.4227 134.718 35.4438 134.764 34.4194C134.787 33.6455 135.249 33.304 136.058 33.3495C136.89 33.4178 137.745 33.3723 138.599 33.3723Z" fill="E63915"/>
<path d="M26.269 55.4536C25.2755 55.4536 24.259 55.4764 23.2655 55.4536C22.5262 55.4309 22.1565 55.0894 22.2951 54.2699C22.8265 51.1739 23.3348 48.078 23.8662 45.0048C24.5824 40.9528 25.4372 36.9008 25.9917 32.826C26.3383 30.2764 26.8466 27.7496 27.2393 25.2227C27.6321 22.7642 28.0942 20.3057 28.51 17.8471C29.2032 13.5902 30.1042 9.37882 30.6125 5.09915C30.7742 3.82435 31.2594 2.61785 31.3287 1.32029C31.3518 0.773944 31.837 0.660123 32.2528 0.660123C34.3784 0.637359 36.4808 0.614595 38.6064 0.637359C39.2764 0.637359 39.5536 1.00159 39.415 1.68451C38.4446 6.64712 37.7053 11.678 36.8043 16.6406C35.9957 21.0341 35.2794 25.4276 34.517 29.8211C33.5698 35.2845 32.5994 40.7707 31.7215 46.2569C31.2825 49.0569 30.8666 51.8569 30.2428 54.6341C30.1042 55.226 29.8732 55.4992 29.2494 55.4992C28.2559 55.4536 27.2624 55.4536 26.269 55.4536Z" fill="E63915"/>
</svg>
